<?xml version="1.0" encoding="utf-8"?>
<!-- Generator: Adobe Illustrator 28.1.0, SVG Export Plug-In . SVG Version: 6.00 Build 0)  -->
<svg version="1.1" id="Layer_1" xmlns="http://www.w3.org/2000/svg" xmlns:xlink="http://www.w3.org/1999/xlink" x="0px" y="0px"
	 viewBox="0 0 64 64" style="enable-background:new 0 0 64 64;" xml:space="preserve">
<g>
	<path d="M48.8,8.8c-2.1-2-4.9-3.2-7.9-3.2h0c-3,0-5.8,1.1-7.9,3.2L22,19.5c-3.6,3.6-4.3,9.2-1.5,13.5c0.4,0.7,1,1.3,1.5,1.9
		c0.5,0.5,1,0.9,1.5,1.2c4.5,3.1,10.5,2.6,14.3-1.2l1.9-1.9c-0.3-0.5-0.6-0.9-1-1.3c-0.3-0.2-0.5-0.5-0.8-0.7l-2,2
		c-1.6,1.6-3.8,2.4-6,2.4c-1.4,0-2.8-0.3-4-1c-0.7-0.4-1.3-0.8-1.9-1.4c-0.7-0.7-1.3-1.6-1.8-2.5c-1.4-3.1-0.7-6.8,1.8-9.2l11-10.7
		c3.3-3.2,8.6-3.2,11.9,0c1.6,1.6,2.5,3.6,2.5,5.8c0,2.2-0.9,4.3-2.5,5.8l-4.1,4c0.3,0.2,0.5,0.5,0.8,0.7c0.4,0.4,0.8,0.8,1.1,1.2
		l4.2-4.1c2.1-2,3.2-4.8,3.2-7.7C52,13.6,50.8,10.9,48.8,8.8z"/>
	<path d="M42,28.5c-0.5-0.5-1-0.9-1.5-1.2c-1.9-1.3-4.1-2-6.4-2h0c-3,0-5.8,1.1-7.9,3.2l-1.9,1.9c0.3,0.5,0.6,0.9,1,1.3
		c0.3,0.3,0.5,0.5,0.8,0.7l2-2c2.6-2.6,6.7-3.1,10-1.4c0.7,0.4,1.3,0.8,1.9,1.4c0.7,0.7,1.3,1.6,1.8,2.5c1.4,3.1,0.7,6.8-1.8,9.2
		l-11,10.7c-1.6,1.5-3.7,2.4-6,2.4c-0.2,0-0.3,0-0.5,0c-2.4-0.2-4.6-1.3-6.1-3.2c-2.6-3.3-2.2-8,0.9-11.1l3.9-3.8
		c-0.3-0.2-0.5-0.5-0.8-0.7c-0.4-0.4-0.8-0.8-1.1-1.2l-4.2,4.1c-2.2,2.1-3.4,5.1-3.2,8.2c0.1,3.1,1.6,5.9,4,7.9
		c4.4,3.5,11.1,3.1,15.3-1L42,43.8c3.6-3.6,4.3-9.2,1.5-13.5C43.1,29.7,42.6,29,42,28.5z"/>
</g>
</svg>
