<?xml version="1.0" encoding="utf-8"?>
<!-- Generator: Adobe Illustrator 28.1.0, SVG Export Plug-In . SVG Version: 6.00 Build 0)  -->
<svg version="1.1" id="Layer_1" xmlns:serif="http://www.serif.com/"
	 xmlns="http://www.w3.org/2000/svg" xmlns:xlink="http://www.w3.org/1999/xlink" x="0px" y="0px" viewBox="0 0 96 96"
	 style="enable-background:new 0 0 96 96;" xml:space="preserve">
<style type="text/css">
	.st0{fill-rule:evenodd;clip-rule:evenodd;}
</style>
<g transform="matrix(1,0,0,1,-432,-192)">
	<g transform="matrix(1,0,0,1.04762,0,-9.90476)">
		<path class="st0" d="M441.9,216.7v-0.5c0-5.6,4.8-10.1,10.6-10.1h53.2c5.8,0,10.6,4.5,10.6,10.1v0.5l-34.6,20.2
			c-1.6,1.1-4,1.1-5.6,0L441.9,216.7z M516.4,222.6v34c0,5.6-4.8,10.1-10.6,10.1h-53.2c-5.8,0-10.6-4.5-10.6-10.1v-34l31.6,18.6
			c3.5,2.1,7.7,2.1,11.2,0L516.4,222.6z"/>
	</g>
</g>
</svg>
